HIERARCHY
ROOT Hips
{
	OFFSET 0.00000 0.00000 0.00000
	CHANNELS 6 Xposition Yposition Zposition Zrotation Yrotation Xrotation 
	JOINT LHipJoint
	{
		OFFSET 0 0 0
		CHANNELS 3 Zrotation Yrotation Xrotation
		JOINT LeftHip
		{
			OFFSET 1.61024 -1.73873 0.75100
			CHANNELS 3 Zrotation Yrotation Xrotation
			JOINT LeftKnee
			{
				OFFSET 2.29819 -6.31424 0.00000
				CHANNELS 3 Zrotation Yrotation Xrotation
				JOINT LeftAnkle
				{
					OFFSET 2.76618 -7.60002 0.00000
					CHANNELS 3 Zrotation Yrotation Xrotation
					JOINT LeftToe
					{
						OFFSET 0.16838 -0.46263 2.02361
						CHANNELS 3 Zrotation Yrotation Xrotation
						End Site
						{
							OFFSET 0.00000 -0.00000 1.04662
						}
					}
				}
			}
		}
	}
	JOINT RHipJoint
	{
		OFFSET 0 0 0
		CHANNELS 3 Zrotation Yrotation Xrotation
		JOINT RightHip
		{
			OFFSET -1.46153 -1.73873 0.75100
			CHANNELS 3 Zrotation Yrotation Xrotation
			JOINT RightKnee
			{
				OFFSET -2.38373 -6.54924 0.00000
				CHANNELS 3 Zrotation Yrotation Xrotation
				JOINT RightAnkle
				{
					OFFSET -2.80314 -7.70157 0.00000
					CHANNELS 3 Zrotation Yrotation Xrotation
					JOINT RightToe
					{
						OFFSET -0.16142 -0.44349 2.02101
						CHANNELS 3 Zrotation Yrotation Xrotation
						End Site
						{
							OFFSET -0.00000 -0.00000 1.04381
						}
					}
				}
			}
		}
	}
	JOINT lowerback
	{
		OFFSET 0 0 0
		CHANNELS 3 Zrotation Yrotation Xrotation
		JOINT Chest
		{
			OFFSET -0.01629 1.66985 0.14750
			CHANNELS 3 Zrotation Yrotation Xrotation
			JOINT Chest2
			{
				OFFSET 0.02086 1.62378 0.20980
				CHANNELS 3 Zrotation Yrotation Xrotation
				JOINT lowerneck
				{
					OFFSET 0 0 0
					CHANNELS 3 Zrotation Yrotation Xrotation
					JOINT Neck
					{
						OFFSET -0.05690 1.78719 0.08702
						CHANNELS 3 Zrotation Yrotation Xrotation
						JOINT Head
						{
							OFFSET 0.16035 1.73871 -0.38470
							CHANNELS 3 Zrotation Yrotation Xrotation
							End Site
							{
								OFFSET 0.05645 1.80914 -0.14081
							}
						}
					}
				}
				JOINT LeftCollar
				{
					OFFSET 0 0 0
					CHANNELS 3 Zrotation Yrotation Xrotation
					JOINT LeftShoulder
					{
						OFFSET 2.83089 1.66494 -0.46008
CHANNELS 3 Zrotation Xrotation Yrotation
						JOINT LeftElbow
						{
OFFSET 0 -5.548930 -0.000000
CHANNELS 3 Zrotation Xrotation Yrotation
							JOINT LeftWrist
							{
OFFSET 0 -3.028980 -0.000000
CHANNELS 3 Zrotation Xrotation Yrotation
								JOINT lhand
								{
									OFFSET 0 0 0
CHANNELS 3 Zrotation Xrotation Yrotation
									JOINT LFingers
									{
OFFSET 0 -0.640950 -0.000000
CHANNELS 3 Zrotation Xrotation Yrotation
										End Site
										{
OFFSET 0 -0.516750 -0.000000
										}
									}
								}
								JOINT LThumb
								{
OFFSET 0 0.000000 0.000000
CHANNELS 3 Zrotation Xrotation Yrotation
									End Site
									{
OFFSET 0 -0.524640 0.524640
									}
								}
							}
						}
					}
				}
				JOINT RightCollar
				{
					OFFSET 0 0 0
					CHANNELS 3 Zrotation Yrotation Xrotation
					JOINT RightShoulder
					{
						OFFSET -2.84442 1.45761 -0.18088
CHANNELS 3 Zrotation Xrotation Yrotation
						JOINT RightElbow
						{
OFFSET 0 -5.351900 -0.000000
CHANNELS 3 Zrotation Xrotation Yrotation
							JOINT RightWrist
							{
OFFSET 0 -3.025310 -0.000000
CHANNELS 3 Zrotation Xrotation Yrotation
								JOINT rhand
								{
									OFFSET 0 0 0
CHANNELS 3 Zrotation Xrotation Yrotation
									JOINT RFingers
									{
OFFSET 0 -0.783890 -0.000000
CHANNELS 3 Zrotation Xrotation Yrotation
										End Site
										{
OFFSET 0 -0.631990 -0.000000
										}
									}
								}
								JOINT RThumb
								{
OFFSET 0 0.000000 0.000000
CHANNELS 3 Zrotation Xrotation Yrotation
									End Site
									{
OFFSET 0 -0.641640 0.641640
									}
								}
							}
						}
					}
				}
			}
		}
	}
}
MOTION
Frames: 11
Frame Time: 0.008333333333333333
-0.018205 17.777019 1.166187 -355.916170 127.627669 -341.328070 0.000000 0.000000 0.000000 -3.405385 -30.870613 -17.595750 0.512549 4.588762 12.739193 0.015517 3.574047 -5.771220 2.893935 -10.521315 -30.681876 0.000000 0.000000 0.000000 25.679536 -2.196793 -9.100839 -0.147158 -2.472082 6.812260 1.006736 -25.267013 -28.998440 -0.008846 0.605336 -1.663551 0.583351 5.818475 -4.541906 -1.690376 8.125598 -7.316211 -2.038699 4.161426 -4.734916 -2.251286 1.345841 -6.497234 8.129716 1.493427 20.683489 3.207784 1.628878 7.301047 0.000000 0.000000 0.000000 32.756007 -34.942582 -31.293012 162.825225 -27.087643 115.833383 -6.658930 -14.992475 -48.256686 0.000000 0.000000 0.000000 -7.125000 0.000000 0.000000 -65.461036 67.258291 41.597626 0.000000 0.000000 0.000000 -27.372340 -59.729342 50.967194 -137.655370 -49.399059 -99.798134 12.631218 -6.458787 -2.600878 0.000000 0.000000 0.000000 7.125000 0.000000 0.000000 28.875314 26.682531 14.666534
0.009688 17.782063 0.899587 -357.256220 130.264982 -340.288461 0.000000 0.000000 0.000000 -3.589373 -31.501478 -20.433005 0.523004 4.634784 12.869820 0.055788 1.192746 -5.071415 3.222660 -11.047142 -32.438978 0.000000 0.000000 0.000000 25.161220 -3.952995 -11.440990 -0.149938 -2.494831 6.875241 0.144839 -22.842093 -31.243183 -0.110790 -2.146144 5.909585 -1.443984 5.692290 -3.388011 -2.027459 7.852348 -6.187329 -1.341339 4.064706 -4.418358 -4.054995 1.596824 -5.008723 9.020229 1.828668 15.129052 3.626278 1.485133 5.222029 0.000000 0.000000 0.000000 35.690608 -39.320450 -28.337687 162.659492 -27.304501 115.757601 -3.370496 -12.055113 -48.070012 0.000000 0.000000 0.000000 -7.125000 0.000000 0.000000 -62.584596 68.233011 40.413295 0.000000 0.000000 0.000000 -37.025293 -63.166126 40.391480 -137.380668 -49.547441 -99.589396 12.676544 -13.147954 -2.323470 0.000000 0.000000 0.000000 7.125000 0.000000 0.000000 28.977021 26.928644 14.534692
0.015593 17.814159 0.640565 -357.677169 129.407893 -337.800928 0.000000 0.000000 0.000000 -3.384381 -31.570457 -22.919366 0.498887 4.528341 12.567947 0.026995 2.302549 -4.788256 3.483046 -11.438646 -33.774026 0.000000 0.000000 0.000000 23.778869 -1.895796 -14.312621 -0.208330 -2.938823 8.108574 0.318085 -23.273353 -30.701959 -0.172053 -2.671529 7.365636 -2.930224 6.457565 -2.517539 -3.101081 8.793172 -5.774986 -1.726431 4.556351 -4.525837 -3.636287 1.483621 -3.193250 9.066734 1.681508 12.375933 3.472685 1.323070 4.086247 0.000000 0.000000 0.000000 39.816983 -42.793530 -28.632110 161.003124 -29.414637 114.970582 3.198081 -6.695240 -47.392857 0.000000 0.000000 0.000000 -7.125000 0.000000 0.000000 -55.866763 70.070991 37.103109 0.000000 0.000000 0.000000 -44.847263 -65.818371 34.094518 -140.016980 -48.059086 -101.573094 7.063528 -15.229861 -6.718620 0.000000 0.000000 0.000000 7.125000 0.000000 0.000000 24.264217 23.188218 14.011278
0.023256 17.838888 0.440760 -358.509374 128.211783 -336.598558 0.000000 0.000000 0.000000 -3.878403 -31.799075 -24.166461 0.467088 4.383636 12.158450 -0.008490 3.579771 -4.692096 3.631523 -11.653229 -34.516079 0.000000 0.000000 0.000000 22.157807 -0.226803 -15.823121 -0.232168 -3.101342 8.561047 0.377054 -23.375241 -30.448659 -0.263691 -3.303726 9.125393 -3.387435 7.809044 -1.063250 -5.372691 10.494389 -5.864298 -4.063105 5.391495 -5.096036 -0.312450 0.237059 -2.187777 8.316248 -0.008331 11.441437 2.807360 0.574381 4.056773 0.000000 0.000000 0.000000 40.096103 -46.966907 -30.806475 158.570404 -32.326215 113.721855 11.413706 1.554365 -46.225081 0.000000 0.000000 0.000000 -7.125000 0.000000 0.000000 -45.857891 72.237493 31.493314 0.000000 0.000000 0.000000 -44.868600 -61.581675 34.451275 -143.450979 -45.887030 -104.084581 -10.052912 2.189928 -12.684481 0.000000 0.000000 0.000000 7.125000 0.000000 0.000000 11.906004 17.259850 8.001606
0.024683 17.852912 0.275988 -359.023588 127.409397 -336.002259 0.000000 0.000000 0.000000 -4.374646 -31.999109 -24.937070 0.478997 4.438437 12.313668 -0.021519 3.993665 -4.680754 3.557985 -11.547555 -34.149817 0.000000 0.000000 0.000000 21.113750 0.548300 -15.700642 -0.176342 -2.705059 7.458726 0.472427 -24.059740 -30.841869 -0.306468 -3.558974 9.839171 -3.235638 8.219377 -0.242835 -6.767718 11.009957 -6.257856 -5.779767 5.638469 -5.658946 2.429986 -0.705554 -1.452274 7.503451 -1.243179 11.794163 2.069712 0.085762 4.185225 0.000000 0.000000 0.000000 35.972996 -47.622921 -37.727870 156.909182 -34.187931 112.810668 12.233989 -0.125701 -34.066399 0.000000 0.000000 0.000000 -7.125000 0.000000 0.000000 -25.149512 62.918546 11.313515 0.000000 0.000000 0.000000 -37.490026 -53.358205 41.212245 -149.019340 -41.719006 -107.942917 -19.526113 2.114705 -13.611315 0.000000 0.000000 0.000000 7.125000 0.000000 0.000000 5.387698 15.614368 3.755381
0.005398 17.852674 0.195066 -359.219324 126.639012 -336.251389 0.000000 0.000000 0.000000 -5.298062 -31.138115 -25.140262 0.529042 4.660792 12.943616 0.002722 3.344503 -4.906909 3.607324 -11.618726 -34.396230 0.000000 0.000000 0.000000 20.406553 1.164704 -14.982368 -0.154570 -2.533196 6.981672 0.451494 -24.271140 -31.310423 -0.385654 -3.987715 11.042043 -4.209614 5.041818 -1.035147 -3.367094 6.769355 -5.162124 -1.382075 3.565996 -4.844278 -3.112973 2.281864 -3.740785 6.648676 2.932512 14.045347 2.730176 1.850759 4.660422 0.000000 0.000000 0.000000 34.573838 -41.338574 -34.858635 156.191455 -34.961166 112.403408 9.353665 -17.162442 -23.484036 0.000000 0.000000 0.000000 -7.125000 0.000000 0.000000 -20.315982 52.586044 3.921648 0.000000 0.000000 0.000000 -28.164535 -53.308749 59.011729 -151.486382 -39.584750 -109.550617 -26.095373 -11.587350 -13.435834 0.000000 0.000000 0.000000 7.125000 0.000000 0.000000 0.873772 15.084338 0.616116
-0.014877 17.858136 0.227604 -359.946259 123.962417 -337.812998 0.000000 0.000000 0.000000 -6.839342 -30.079981 -23.551080 0.521991 4.630387 12.857373 -0.024620 4.516151 -5.431353 3.393696 -11.306416 -33.320706 0.000000 0.000000 0.000000 18.920747 3.466174 -13.973391 -0.195270 -2.845466 7.848693 0.608636 -25.164805 -31.658256 -0.238219 -3.138021 8.663530 -4.350271 4.613333 -1.145441 -2.812211 6.208899 -5.330994 -0.716451 3.306609 -5.029008 -2.837958 2.776525 -5.414649 5.431884 3.739800 16.105372 2.426571 2.222550 5.575914 0.000000 0.000000 0.000000 32.704664 -38.485268 -37.117572 157.356635 -33.696480 113.060560 10.931057 -38.960071 -23.219541 0.000000 0.000000 0.000000 -7.125000 0.000000 0.000000 -18.661389 52.607699 3.596440 0.000000 0.000000 0.000000 -21.446941 -49.957676 64.272923 -153.468391 -37.728637 -110.788920 -31.984734 -48.027776 -11.651369 0.000000 0.000000 0.000000 7.125000 0.000000 0.000000 -3.332432 16.330438 -2.265031
-0.023674 17.857930 0.345045 -360.334843 121.692716 -339.444229 0.000000 0.000000 0.000000 -7.850451 -29.023313 -21.560040 0.490211 4.489268 12.457242 -0.073447 5.843832 -5.679935 3.320966 -11.197346 -32.948327 0.000000 0.000000 0.000000 18.159207 5.429297 -12.524944 -0.212688 -2.969395 8.193608 0.937147 -26.183293 -31.120502 -0.057089 -1.539592 4.234809 -3.743288 4.316585 -1.916112 -2.162260 5.893048 -5.782975 -0.325341 3.154178 -5.063597 -1.623278 2.751865 -7.215758 3.007916 4.142982 20.350207 1.628723 2.390068 7.318949 0.000000 0.000000 0.000000 31.871487 -36.813650 -43.169190 158.660223 -32.222659 113.769800 8.494639 -36.709600 -20.295556 0.000000 0.000000 0.000000 -7.125000 0.000000 0.000000 -19.576754 49.445383 2.222928 0.000000 0.000000 0.000000 -17.867697 -49.605752 68.392269 -154.745497 -36.462755 -111.559276 -28.391379 -46.906594 -12.913049 0.000000 0.000000 0.000000 7.125000 0.000000 0.000000 -0.740904 15.373290 -0.517936
-0.029093 17.847803 0.523868 -359.689038 121.234137 -340.735933 0.000000 0.000000 0.000000 -8.031369 -28.194420 -19.293764 0.449382 4.300850 11.924676 -0.086026 6.170326 -5.797322 3.355536 -11.249373 -33.125651 0.000000 0.000000 0.000000 18.917093 5.728274 -10.594703 -0.211004 -2.957268 8.159877 1.017767 -26.360683 -30.869897 -0.000534 -0.105438 0.289627 -1.854788 4.384832 -2.541728 -1.718326 6.069368 -6.399520 -0.884436 3.189501 -5.208521 0.326991 1.823405 -10.728331 0.948289 3.620155 28.176587 0.822250 2.282421 10.811560 0.000000 0.000000 0.000000 31.228351 -37.064208 -47.954498 159.692171 -31.011447 114.310866 10.772522 -25.193234 -15.509879 0.000000 0.000000 0.000000 -7.125000 0.000000 0.000000 -15.666122 45.157427 0.062860 0.000000 0.000000 0.000000 -18.305528 -49.863854 66.235084 -155.492824 -35.695948 -111.999444 -22.782998 -43.103388 -13.638330 0.000000 0.000000 0.000000 7.125000 0.000000 0.000000 3.154787 15.251091 2.217365
-0.017571 17.832448 0.719261 -358.856513 120.877157 -341.916818 0.000000 0.000000 0.000000 -7.853472 -27.992229 -16.415877 0.377033 3.943816 10.918516 -0.118752 7.030321 -6.294779 3.165038 -10.957449 -32.136604 0.000000 0.000000 0.000000 19.993854 5.828434 -8.325886 -0.186090 -2.778023 7.661440 1.088869 -26.605244 -30.805627 -0.000619 0.155613 -0.427553 -0.287003 3.751865 -3.965914 -0.503039 5.311721 -6.578419 -0.374716 2.786920 -4.561911 0.444976 2.214683 -11.838721 0.223092 4.821361 31.708186 0.815414 2.841654 12.450271 0.000000 0.000000 0.000000 32.285614 -35.292107 -47.275765 159.408865 -31.348006 114.164234 10.869450 -23.501009 -13.219968 0.000000 0.000000 0.000000 -7.125000 0.000000 0.000000 -14.886418 42.931640 -0.778466 0.000000 0.000000 0.000000 -19.812634 -51.419857 65.776924 -155.235125 -35.962727 -111.848547 -20.644279 -40.406260 -13.519359 0.000000 0.000000 0.000000 7.125000 0.000000 0.000000 4.616555 15.601932 3.215687
-0.007122 17.830211 0.882505 -358.810182 119.853364 -343.120743 0.000000 0.000000 0.000000 -8.059847 -27.529284 -14.402388 0.324662 3.662189 10.128172 -0.179307 8.169998 -6.485309 2.904989 -10.539519 -30.742160 0.000000 0.000000 0.000000 20.371056 6.707621 -6.897512 -0.188435 -2.795893 7.711144 1.067149 -26.681064 -31.092061 -0.000115 0.019991 -0.054997 0.671705 3.530799 -5.087201 0.465642 5.140017 -7.442111 0.132089 2.726544 -4.856504 0.035247 2.189899 -11.367129 0.077569 5.252951 33.388081 0.938840 3.048388 13.050608 0.000000 0.000000 0.000000 32.651988 -33.066885 -48.459728 159.972332 -30.675636 114.454607 11.394998 -22.655694 -14.004672 0.000000 0.000000 0.000000 -7.125000 0.000000 0.000000 -14.648797 43.756575 -0.459931 0.000000 0.000000 0.000000 -20.848456 -51.387357 66.238238 -155.574005 -35.611538 -112.046757 -20.414031 -41.105806 -12.764383 0.000000 0.000000 0.000000 7.125000 0.000000 0.000000 4.748628 16.421226 3.223780
